# 3ds Max Wavefront OBJ Exporter v0.97b - (c)2007 guruware
# File Created: 18.05.2019 21:48:50

mtllib grid.mtl

#
# object Grid
#

v  -4.5000 3.9600 0.0012
v  4.5000 3.9600 0.0012
v  4.5000 4.7225 0.0012
v  -4.5000 4.7225 0.0012
v  4.5000 3.9600 -0.0012
v  -4.5000 3.9600 -0.0012
v  -4.5000 4.7225 -0.0012
v  4.5000 4.7225 -0.0012
# 8 vertices

vn 0.0000 0.0000 1.0000
vn 0.0000 0.0000 -1.0000
# 2 vertex normals

vt 0.0081 0.8180 0.0000
vt 0.9919 0.8180 0.0000
vt 0.9919 0.9014 0.0000
vt 0.0081 0.9014 0.0000
vt 0.0081 0.9072 0.0000
vt 0.9919 0.9072 0.0000
vt 0.9919 0.9906 0.0000
vt 0.0081 0.9906 0.0000
# 8 texture coords

o Grid
g Grid
usemtl Grid
s 8
f 1/1/1 2/2/1 3/3/1 4/4/1 
s 32
f 5/5/2 6/6/2 7/7/2 8/8/2 
# 2 polygons

