# 3ds Max Wavefront OBJ Exporter v0.97b - (c)2007 guruware
# File Created: 18.05.2019 20:30:18

mtllib racket.mtl

#
# object Racket
#

v  0.6500 3.2500 0.1250
v  0.6600 2.2500 0.1250
v  0.6600 2.2500 -0.1250
v  0.6500 3.2500 -0.1250
v  0.6850 1.5500 0.1250
v  0.6850 1.5500 -0.1250
v  0.7500 0.8000 0.1250
v  0.7500 0.8000 -0.1250
v  0.8250 0.0000 0.1250
v  0.8250 0.0000 -0.1250
v  0.8000 0.0000 0.2500
v  0.7250 0.0000 0.3250
v  0.6000 0.0000 0.3500
v  -0.6000 0.0000 0.3500
v  -0.7250 0.0000 0.3250
v  -0.8000 0.0000 0.2500
v  -0.8250 0.0000 0.1250
v  -0.8250 0.0000 -0.1250
v  -0.8000 0.0000 -0.2500
v  -0.7250 0.0000 -0.3250
v  -0.6000 0.0000 -0.3500
v  0.6000 0.0000 -0.3500
v  0.7250 0.0000 -0.3250
v  0.8000 0.0000 -0.2500
v  -0.7500 0.8000 0.1250
v  -0.7500 0.8000 -0.1250
v  -0.6850 1.5500 0.1250
v  -0.6850 1.5500 -0.1250
v  -0.6600 2.2500 0.1250
v  -0.6600 2.2500 -0.1250
v  -0.6500 3.2500 0.1250
v  -0.6500 3.2500 -0.1250
v  0.6504 0.7910 0.3250
v  0.5259 0.7798 0.3500
v  0.5852 1.5439 0.3250
v  0.4603 1.5363 0.3500
v  0.5600 2.2477 0.3250
v  0.4350 2.2449 0.3500
v  0.5500 3.2495 0.3250
v  0.4250 3.2489 0.3500
v  -0.5259 0.7798 0.3500
v  -0.6504 0.7910 0.3250
v  -0.4603 1.5363 0.3500
v  -0.5852 1.5439 0.3250
v  -0.4350 2.2449 0.3500
v  -0.5600 2.2477 0.3250
v  -0.4250 3.2489 0.3500
v  -0.5500 3.2495 0.3250
v  0.5259 0.7798 -0.3500
v  0.6504 0.7910 -0.3250
v  0.4603 1.5363 -0.3500
v  0.5852 1.5439 -0.3250
v  0.4350 2.2449 -0.3500
v  0.5600 2.2477 -0.3250
v  0.4250 3.2489 -0.3500
v  0.5500 3.2495 -0.3250
v  -0.6504 0.7910 -0.3250
v  -0.5259 0.7798 -0.3500
v  -0.5852 1.5439 -0.3250
v  -0.4603 1.5363 -0.3500
v  -0.5600 2.2477 -0.3250
v  -0.4350 2.2449 -0.3500
v  -0.5500 3.2495 -0.3250
v  -0.4250 3.2489 -0.3500
v  0.7251 0.7978 0.2500
v  0.6600 1.5485 0.2500
v  0.6350 2.2494 0.2500
v  0.6250 3.2499 0.2500
v  -0.7251 0.7978 0.2500
v  -0.6600 1.5485 0.2500
v  -0.6350 2.2494 0.2500
v  -0.6250 3.2499 0.2500
v  0.7251 0.7978 -0.2500
v  0.6600 1.5485 -0.2500
v  0.6350 2.2494 -0.2500
v  0.6250 3.2499 -0.2500
v  -0.7251 0.7978 -0.2500
v  -0.6600 1.5485 -0.2500
v  -0.6350 2.2494 -0.2500
v  -0.6250 3.2499 -0.2500
v  0.4250 4.1500 0.3500
v  0.5500 4.2440 0.3250
v  0.6250 4.5258 0.2500
v  0.6500 4.9956 0.1250
v  -0.6500 4.9956 0.1250
v  -0.6250 4.5258 0.2500
v  -0.5500 4.2440 0.3250
v  -0.4250 4.1500 0.3500
v  -0.4250 4.1500 -0.3500
v  -0.5500 4.2440 -0.3250
v  -0.6250 4.5258 -0.2500
v  -0.6500 4.9956 -0.1250
v  0.6500 4.9956 -0.1250
v  0.6250 4.5258 -0.2500
v  0.5500 4.2440 -0.3250
v  0.4250 4.1500 -0.3500
v  0.7444 3.7947 -0.1250
v  0.7444 3.7947 0.1250
v  0.9026 4.1393 -0.1250
v  0.9026 4.1393 0.1250
v  1.1917 4.4037 -0.1250
v  1.1917 4.4037 0.1250
v  1.5092 4.5815 -0.1250
v  1.5092 4.5815 0.1250
v  -0.7444 3.7947 0.1250
v  -0.7444 3.7947 -0.1250
v  -0.9026 4.1393 0.1250
v  -0.9026 4.1393 -0.1250
v  -1.1917 4.4037 0.1250
v  -1.1917 4.4037 -0.1250
v  -1.5092 4.5815 0.1250
v  -1.5092 4.5815 -0.1250
v  1.1979 12.4131 -0.2250
v  1.8578 12.1143 -0.2250
v  2.4679 11.6785 -0.2250
v  2.8290 11.2801 -0.2250
v  3.1524 10.7913 -0.2250
v  3.3892 10.2716 -0.2250
v  3.5885 9.5992 -0.2250
v  3.7130 8.8397 -0.2250
v  3.7500 8.2000 -0.2250
v  3.7254 7.4950 -0.2250
v  3.6440 6.8047 -0.2250
v  3.4722 6.2394 -0.2250
v  3.1582 5.6526 -0.2250
v  2.6949 5.1813 -0.2250
v  2.4250 5.0000 -0.2250
v  -2.4250 5.0000 -0.2250
v  -2.6949 5.1813 -0.2250
v  -3.1582 5.6526 -0.2250
v  -3.4722 6.2394 -0.2250
v  -3.6440 6.8047 -0.2250
v  -3.7254 7.4950 -0.2250
v  -3.7500 8.2000 -0.2250
v  -3.7130 8.8397 -0.2250
v  -3.5885 9.5992 -0.2250
v  -3.3892 10.2716 -0.2250
v  -3.1524 10.7913 -0.2250
v  -2.8290 11.2801 -0.2250
v  -2.4679 11.6785 -0.2250
v  -1.8578 12.1143 -0.2250
v  -1.1979 12.4131 -0.2250
v  -0.4757 12.5625 -0.2250
v  0.0000 12.6000 -0.2250
v  0.4757 12.5625 -0.2250
v  2.4250 5.0000 0.2250
v  2.6949 5.1813 0.2250
v  3.1582 5.6526 0.2250
v  3.4722 6.2394 0.2250
v  3.6440 6.8047 0.2250
v  3.7254 7.4950 0.2250
v  3.7500 8.2000 0.2250
v  3.7130 8.8397 0.2250
v  3.5885 9.5992 0.2250
v  3.3892 10.2716 0.2250
v  3.1524 10.7913 0.2250
v  2.8290 11.2801 0.2250
v  2.4679 11.6785 0.2250
v  1.8578 12.1143 0.2250
v  1.1979 12.4131 0.2250
v  0.4757 12.5625 0.2250
v  0.0000 12.6000 0.2250
v  -0.4757 12.5625 0.2250
v  -1.1979 12.4131 0.2250
v  -1.8578 12.1143 0.2250
v  -2.4679 11.6785 0.2250
v  -2.8290 11.2801 0.2250
v  -3.1524 10.7913 0.2250
v  -3.3892 10.2716 0.2250
v  -3.5885 9.5992 0.2250
v  -3.7130 8.8397 0.2250
v  -3.7500 8.2000 0.2250
v  -3.7254 7.4950 0.2250
v  -3.6440 6.8047 0.2250
v  -3.4722 6.2394 0.2250
v  -3.1582 5.6526 0.2250
v  -2.6949 5.1813 0.2250
v  -2.4250 5.0000 0.2250
v  2.4250 5.0000 0.1250
v  2.4250 5.0000 -0.1250
v  -2.4250 5.0000 -0.1250
v  -2.4250 5.0000 0.1250
# 182 vertices

vn 0.9913 0.0066 0.1313
vn 0.9949 0.0227 0.0986
vn 0.9949 0.0227 -0.0986
vn 0.9913 0.0066 -0.1313
vn 0.9933 0.0607 0.0987
vn 0.9933 0.0607 -0.0987
vn 0.9911 0.0894 0.0986
vn 0.9911 0.0894 -0.0986
vn 0.7553 -0.6512 0.0743
vn 0.7553 -0.6512 -0.0743
vn 0.6975 -0.6160 0.3662
vn 0.3767 -0.6301 0.6790
vn 0.0764 -0.6820 0.7274
vn -0.0764 -0.6820 0.7274
vn -0.3767 -0.6301 0.6790
vn -0.6975 -0.6160 0.3662
vn -0.7553 -0.6511 0.0743
vn -0.7553 -0.6511 -0.0743
vn -0.6975 -0.6160 -0.3662
vn -0.3767 -0.6301 -0.6790
vn -0.0764 -0.6820 -0.7274
vn 0.0764 -0.6820 -0.7274
vn 0.3767 -0.6301 -0.6790
vn 0.6975 -0.6160 -0.3662
vn -0.9911 0.0894 0.0986
vn -0.9911 0.0894 -0.0986
vn -0.9933 0.0607 0.0987
vn -0.9933 0.0607 -0.0987
vn -0.9949 0.0227 0.0986
vn -0.9949 0.0227 -0.0986
vn -0.9913 0.0066 0.1313
vn -0.9913 0.0066 -0.1313
vn 0.4694 0.0425 0.8820
vn 0.9911 0.0900 -0.0983
vn 0.4672 0.0286 0.8837
vn 0.9934 0.0607 -0.0970
vn 0.4699 0.0107 0.8827
vn 0.9950 0.0227 -0.0977
vn 0.4711 0.0024 0.8821
vn 0.9951 0.0050 -0.0983
vn -0.9911 0.0900 -0.0983
vn -0.4694 0.0425 0.8820
vn -0.9934 0.0607 -0.0970
vn -0.4672 0.0286 0.8837
vn -0.9950 0.0227 -0.0977
vn -0.4699 0.0107 0.8827
vn -0.9951 0.0050 -0.0983
vn -0.4711 0.0024 0.8821
vn 0.9911 0.0900 0.0983
vn 0.4694 0.0425 -0.8820
vn 0.9934 0.0607 0.0970
vn 0.4672 0.0286 -0.8837
vn 0.9950 0.0227 0.0977
vn 0.4699 0.0107 -0.8827
vn 0.9951 0.0050 0.0983
vn 0.4711 0.0024 -0.8821
vn -0.4694 0.0425 -0.8820
vn -0.9911 0.0900 0.0983
vn -0.4672 0.0286 -0.8837
vn -0.9934 0.0607 0.0970
vn -0.4699 0.0107 -0.8827
vn -0.9950 0.0227 0.0977
vn -0.4711 0.0024 -0.8821
vn -0.9951 0.0050 0.0983
vn 0.8780 0.0793 0.4721
vn 0.8789 0.0537 0.4739
vn 0.8809 0.0201 0.4729
vn 0.8815 0.0044 0.4722
vn -0.8780 0.0793 0.4721
vn -0.8789 0.0537 0.4739
vn -0.8809 0.0201 0.4729
vn -0.8815 0.0044 0.4722
vn 0.8780 0.0793 -0.4721
vn 0.8789 0.0537 -0.4739
vn 0.8809 0.0201 -0.4729
vn 0.8815 0.0044 -0.4722
vn -0.8780 0.0793 -0.4721
vn -0.8789 0.0537 -0.4739
vn -0.8809 0.0201 -0.4729
vn -0.8815 0.0044 -0.4722
vn 0.0700 0.1032 0.9922
vn 0.3746 0.1112 0.9205
vn 0.6353 0.1562 0.7563
vn 0.1633 0.2456 0.9555
vn -0.1633 0.2456 0.9555
vn -0.6353 0.1562 0.7563
vn -0.3746 0.1112 0.9205
vn -0.0700 0.1032 0.9922
vn -0.0700 0.1032 -0.9922
vn -0.3746 0.1112 -0.9205
vn -0.6353 0.1562 -0.7563
vn -0.1633 0.2456 -0.9555
vn 0.1633 0.2456 -0.9555
vn 0.6353 0.1562 -0.7563
vn 0.3746 0.1112 -0.9205
vn 0.0700 0.1032 -0.9922
vn 0.6598 -0.1143 -0.7427
vn 0.6451 -0.2003 -0.7373
vn 0.6451 -0.2003 0.7373
vn 0.6598 -0.1143 0.7427
vn 0.5301 -0.3867 -0.7546
vn 0.5301 -0.3867 0.7546
vn 0.3978 -0.5506 -0.7339
vn 0.3978 -0.5506 0.7339
vn 0.3157 -0.6221 -0.7165
vn 0.3157 -0.6221 0.7165
vn -0.6598 -0.1143 -0.7427
vn -0.6598 -0.1143 0.7427
vn -0.6451 -0.2003 0.7373
vn -0.6451 -0.2003 -0.7373
vn -0.5301 -0.3867 0.7546
vn -0.5301 -0.3867 -0.7546
vn -0.3978 -0.5506 0.7339
vn -0.3978 -0.5506 -0.7339
vn -0.3157 -0.6221 0.7164
vn -0.3157 -0.6221 -0.7165
vn 0.2260 0.6945 -0.6831
vn 0.3633 0.6306 -0.6858
vn 0.4852 0.5450 -0.6838
vn 0.5712 0.4437 -0.6905
vn 0.6332 0.3509 -0.6899
vn 0.6764 0.2529 -0.6918
vn 0.7025 0.1610 -0.6932
vn 0.7142 0.0790 -0.6955
vn 0.7172 0.0082 -0.6968
vn 0.7141 -0.0545 -0.6979
vn 0.7106 -0.1487 -0.6877
vn 0.6723 -0.2788 -0.6857
vn 0.5934 -0.4363 -0.6764
vn 0.4652 -0.5606 -0.6851
vn 0.2223 -0.7294 -0.6470
vn -0.2223 -0.7294 -0.6470
vn -0.4652 -0.5606 -0.6851
vn -0.5934 -0.4363 -0.6764
vn -0.6723 -0.2788 -0.6857
vn -0.7106 -0.1487 -0.6877
vn -0.7140 -0.0545 -0.6980
vn -0.7172 0.0082 -0.6969
vn -0.7141 0.0790 -0.6956
vn -0.7024 0.1610 -0.6933
vn -0.6764 0.2529 -0.6918
vn -0.6332 0.3509 -0.6899
vn -0.5712 0.4437 -0.6905
vn -0.4852 0.5450 -0.6838
vn -0.3633 0.6306 -0.6858
vn -0.2260 0.6945 -0.6831
vn -0.1015 0.7135 -0.6933
vn 0.0000 0.7240 -0.6899
vn 0.1015 0.7135 -0.6933
vn 0.2223 -0.7294 0.6470
vn 0.4652 -0.5606 0.6851
vn 0.5934 -0.4363 0.6764
vn 0.6723 -0.2788 0.6857
vn 0.7106 -0.1487 0.6877
vn 0.7140 -0.0545 0.6980
vn 0.7172 0.0082 0.6968
vn 0.7142 0.0790 0.6955
vn 0.7024 0.1610 0.6933
vn 0.6764 0.2529 0.6917
vn 0.6332 0.3509 0.6899
vn 0.5712 0.4437 0.6905
vn 0.4852 0.5450 0.6838
vn 0.3633 0.6306 0.6858
vn 0.2260 0.6945 0.6831
vn 0.1015 0.7135 0.6933
vn 0.0000 0.7240 0.6899
vn -0.1015 0.7135 0.6933
vn -0.2260 0.6945 0.6831
vn -0.3633 0.6306 0.6858
vn -0.4852 0.5450 0.6838
vn -0.5712 0.4437 0.6905
vn -0.6332 0.3509 0.6899
vn -0.6764 0.2529 0.6918
vn -0.7024 0.1610 0.6933
vn -0.7141 0.0790 0.6956
vn -0.7172 0.0082 0.6969
vn -0.7140 -0.0545 0.6980
vn -0.7106 -0.1487 0.6877
vn -0.6723 -0.2788 0.6857
vn -0.5934 -0.4363 0.6764
vn -0.4652 -0.5606 0.6851
vn -0.2223 -0.7294 0.6470
vn -0.6347 -0.7650 0.1093
vn 0.3932 -0.9168 -0.0701
vn -0.3932 -0.9168 -0.0701
vn -0.3932 -0.9168 0.0701
# 186 vertex normals

vt 0.3649 0.2675 0.0000
vt 0.3649 0.1889 0.0000
vt 0.3841 0.1889 0.0000
vt 0.3841 0.2675 0.0000
vt 0.3649 0.1340 0.0000
vt 0.3841 0.1340 0.0000
vt 0.3649 0.0751 0.0000
vt 0.3841 0.0751 0.0000
vt 0.3649 0.0122 0.0000
vt 0.3841 0.0122 0.0000
vt 0.2136 0.5649 0.0000
vt 0.2040 0.5630 0.0000
vt 0.1982 0.5572 0.0000
vt 0.1963 0.5476 0.0000
vt 0.1963 0.4553 0.0000
vt 0.1982 0.4457 0.0000
vt 0.2040 0.4399 0.0000
vt 0.2136 0.4380 0.0000
vt 0.2328 0.4380 0.0000
vt 0.2425 0.4399 0.0000
vt 0.2482 0.4457 0.0000
vt 0.2501 0.4553 0.0000
vt 0.2501 0.5476 0.0000
vt 0.2482 0.5572 0.0000
vt 0.2425 0.5630 0.0000
vt 0.2328 0.5649 0.0000
vt 0.7399 0.0109 0.0000
vt 0.7491 0.0109 0.0000
vt 0.7455 0.0478 0.0000
vt 0.7370 0.0478 0.0000
vt 0.7412 0.1105 0.0000
vt 0.7334 0.1105 0.0000
vt 0.7388 0.1692 0.0000
vt 0.7315 0.1692 0.0000
vt 0.7371 0.2525 0.0000
vt 0.7301 0.2525 0.0000
vt 0.6586 0.0478 0.0000
vt 0.6498 0.0478 0.0000
vt 0.6461 0.0109 0.0000
vt 0.6556 0.0109 0.0000
vt 0.6621 0.1105 0.0000
vt 0.6541 0.1105 0.0000
vt 0.6641 0.1692 0.0000
vt 0.6566 0.1692 0.0000
vt 0.6655 0.2525 0.0000
vt 0.6583 0.2525 0.0000
vt 0.7618 0.0109 0.0000
vt 0.7573 0.0478 0.0000
vt 0.3553 0.0122 0.0000
vt 0.3553 0.0749 0.0000
vt 0.7519 0.1105 0.0000
vt 0.3553 0.1338 0.0000
vt 0.7489 0.1692 0.0000
vt 0.3553 0.1889 0.0000
vt 0.7469 0.2525 0.0000
vt 0.3553 0.2675 0.0000
vt 0.6388 0.0478 0.0000
vt 0.6342 0.0109 0.0000
vt 0.3937 0.0749 0.0000
vt 0.3937 0.0122 0.0000
vt 0.6441 0.1105 0.0000
vt 0.3937 0.1338 0.0000
vt 0.6471 0.1692 0.0000
vt 0.3937 0.1889 0.0000
vt 0.6492 0.2525 0.0000
vt 0.3937 0.2675 0.0000
vt 0.7301 0.3278 0.0000
vt 0.7371 0.3358 0.0000
vt 0.7469 0.3593 0.0000
vt 0.7469 0.3984 0.0000
vt 0.6492 0.3984 0.0000
vt 0.6492 0.3593 0.0000
vt 0.6583 0.3358 0.0000
vt 0.6655 0.3278 0.0000
vt 0.3937 0.3677 0.0000
vt 0.3841 0.4046 0.0000
vt 0.3649 0.4046 0.0000
vt 0.3553 0.3677 0.0000
vt 0.3841 0.3013 0.0000
vt 0.3649 0.3013 0.0000
vt 0.3841 0.3227 0.0000
vt 0.3649 0.3227 0.0000
vt 0.3841 0.3407 0.0000
vt 0.3649 0.3407 0.0000
vt 0.3841 0.3604 0.0000
vt 0.3649 0.3604 0.0000
vt 0.6079 0.9750 0.0000
vt 0.5582 0.9518 0.0000
vt 0.5121 0.9179 0.0000
vt 0.4849 0.8870 0.0000
vt 0.4605 0.8490 0.0000
vt 0.4426 0.8086 0.0000
vt 0.4276 0.7563 0.0000
vt 0.4182 0.6973 0.0000
vt 0.4154 0.6475 0.0000
vt 0.4172 0.5928 0.0000
vt 0.4234 0.5391 0.0000
vt 0.4363 0.4952 0.0000
vt 0.4600 0.4495 0.0000
vt 0.4950 0.4129 0.0000
vt 0.5154 0.3988 0.0000
vt 0.8813 0.3988 0.0000
vt 0.9017 0.4129 0.0000
vt 0.9366 0.4495 0.0000
vt 0.9603 0.4952 0.0000
vt 0.9733 0.5391 0.0000
vt 0.9794 0.5928 0.0000
vt 0.9813 0.6475 0.0000
vt 0.9785 0.6973 0.0000
vt 0.9691 0.7563 0.0000
vt 0.9540 0.8086 0.0000
vt 0.9362 0.8490 0.0000
vt 0.9118 0.8870 0.0000
vt 0.8845 0.9179 0.0000
vt 0.8385 0.9518 0.0000
vt 0.7887 0.9750 0.0000
vt 0.7342 0.9866 0.0000
vt 0.6983 0.9895 0.0000
vt 0.6624 0.9866 0.0000
vt 0.3572 0.4340 0.0000
vt 0.3572 0.4173 0.0000
vt 0.3649 0.4173 0.0000
vt 0.3841 0.4173 0.0000
vt 0.3918 0.4173 0.0000
vt 0.3918 0.4340 0.0000
vt 0.3572 0.4633 0.0000
vt 0.3918 0.4633 0.0000
vt 0.3572 0.4997 0.0000
vt 0.3918 0.4997 0.0000
vt 0.3572 0.5348 0.0000
vt 0.3918 0.5348 0.0000
vt 0.3572 0.5777 0.0000
vt 0.3918 0.5777 0.0000
vt 0.3572 0.6215 0.0000
vt 0.3918 0.6215 0.0000
vt 0.3572 0.6612 0.0000
vt 0.3918 0.6612 0.0000
vt 0.3572 0.7084 0.0000
vt 0.3918 0.7084 0.0000
vt 0.3572 0.7501 0.0000
vt 0.3918 0.7501 0.0000
vt 0.3572 0.7824 0.0000
vt 0.3918 0.7824 0.0000
vt 0.3572 0.8128 0.0000
vt 0.3918 0.8128 0.0000
vt 0.3572 0.8375 0.0000
vt 0.3918 0.8375 0.0000
vt 0.3572 0.8754 0.0000
vt 0.3918 0.8754 0.0000
vt 0.3572 0.9164 0.0000
vt 0.3918 0.9164 0.0000
vt 0.3572 0.9612 0.0000
vt 0.3918 0.9612 0.0000
vt 0.3572 0.9908 0.0000
vt 0.3918 0.9908 0.0000
vt 0.2779 0.6880 0.0000
vt 0.2702 0.6880 0.0000
vt 0.2702 0.3149 0.0000
vt 0.2779 0.3149 0.0000
vt 0.1786 0.6880 0.0000
vt 0.1710 0.6880 0.0000
vt 0.1710 0.3149 0.0000
vt 0.1786 0.3149 0.0000
vt 0.6493 0.2628 0.0000
vt 0.7474 0.2628 0.0000
vt 0.7545 0.3051 0.0000
vt 0.6422 0.3051 0.0000
vt 0.7664 0.3319 0.0000
vt 0.6302 0.3319 0.0000
vt 0.7882 0.3525 0.0000
vt 0.6084 0.3525 0.0000
vt 0.8122 0.3663 0.0000
vt 0.5845 0.3663 0.0000
# 173 texture coords

o Racket
g Racket
usemtl Material__36
s 1073741825
f 1/1/1 2/2/2 3/3/3 4/4/4 
f 2/2/2 5/5/5 6/6/6 3/3/3 
f 5/5/5 7/7/7 8/8/8 6/6/6 
f 7/7/7 9/9/9 10/10/10 8/8/8 
s 2
f 9/11/9 11/12/11 12/13/12 13/14/13 14/15/14 15/16/15 16/17/16 17/18/17 18/19/18 19/20/19 20/21/20 21/22/21 22/23/22 23/24/23 24/25/24 10/26/10 
s 1073741825
f 17/10/17 25/8/25 26/7/26 18/9/18 
f 25/8/25 27/6/27 28/5/28 26/7/26 
f 27/6/27 29/3/29 30/2/30 28/5/28 
f 29/3/29 31/4/31 32/1/32 30/2/30 
f 13/27/13 12/28/12 33/29/33 34/30/34 
f 34/30/34 33/29/33 35/31/35 36/32/36 
f 36/32/36 35/31/35 37/33/37 38/34/38 
f 38/34/38 37/33/37 39/35/39 40/36/40 
f 41/37/41 42/38/42 15/39/15 14/40/14 
f 43/41/43 44/42/44 42/38/42 41/37/41 
f 45/43/45 46/44/46 44/42/44 43/41/43 
f 47/45/47 48/46/48 46/44/46 45/43/45 
f 49/37/49 50/38/50 23/39/23 22/40/22 
f 51/41/51 52/42/52 50/38/50 49/37/49 
f 53/43/53 54/44/54 52/42/52 51/41/51 
f 55/45/55 56/46/56 54/44/54 53/43/53 
f 21/27/21 20/28/20 57/29/57 58/30/58 
f 58/30/58 57/29/57 59/31/59 60/32/60 
f 60/32/60 59/31/59 61/33/61 62/34/62 
f 62/34/62 61/33/61 63/35/63 64/36/64 
s 1073741828
f 12/28/12 11/47/11 65/48/65 33/29/33 
s 1073741825
f 11/49/11 9/9/9 7/7/7 65/50/65 
s 1073741828
f 33/29/33 65/48/65 66/51/66 35/31/35 
s 1073741825
f 65/50/65 7/7/7 5/5/5 66/52/66 
s 1073741828
f 35/31/35 66/51/66 67/53/67 37/33/37 
s 1073741825
f 66/52/66 5/5/5 2/2/2 67/54/67 
s 1073741828
f 37/33/37 67/53/67 68/55/68 39/35/39 
s 1073741825
f 67/54/67 2/2/2 1/1/1 68/56/68 
s 1073741828
f 42/38/42 69/57/69 16/58/16 15/39/15 
s 1073741825
f 69/59/69 25/8/25 17/10/17 16/60/16 
s 1073741828
f 44/42/44 70/61/70 69/57/69 42/38/42 
s 1073741825
f 70/62/70 27/6/27 25/8/25 69/59/69 
s 1073741828
f 46/44/46 71/63/71 70/61/70 44/42/44 
s 1073741825
f 71/64/71 29/3/29 27/6/27 70/62/70 
s 1073741828
f 48/46/48 72/65/72 71/63/71 46/44/46 
s 1073741825
f 72/66/72 31/4/31 29/3/29 71/64/71 
s 1073741828
f 50/38/50 73/57/73 24/58/24 23/39/23 
s 1073741825
f 73/59/73 8/8/8 10/10/10 24/60/24 
s 1073741828
f 52/42/52 74/61/74 73/57/73 50/38/50 
s 1073741825
f 74/62/74 6/6/6 8/8/8 73/59/73 
s 1073741828
f 54/44/54 75/63/75 74/61/74 52/42/52 
s 1073741825
f 75/64/75 3/3/3 6/6/6 74/62/74 
s 1073741828
f 56/46/56 76/65/76 75/63/75 54/44/54 
s 1073741825
f 76/66/76 4/4/4 3/3/3 75/64/75 
s 1073741828
f 20/28/20 19/47/19 77/48/77 57/29/57 
s 1073741825
f 19/49/19 18/9/18 26/7/26 77/50/77 
s 1073741828
f 57/29/57 77/48/77 78/51/78 59/31/59 
s 1073741825
f 77/50/77 26/7/26 28/5/28 78/52/78 
s 1073741828
f 59/31/59 78/51/78 79/53/79 61/33/61 
s 1073741825
f 78/52/78 28/5/28 30/2/30 79/54/79 
s 1073741828
f 61/33/61 79/53/79 80/55/80 63/35/63 
s 1073741825
f 79/54/79 30/2/30 32/1/32 80/56/80 
s 8
f 81/67/81 82/68/82 83/69/83 84/70/84 85/71/85 86/72/86 87/73/87 88/74/88 
f 89/67/89 90/68/90 91/69/91 92/70/92 93/71/93 94/72/94 95/73/95 96/74/96 
s 1073741826
f 88/74/88 87/73/87 48/46/48 47/45/47 
f 86/75/86 85/76/85 31/4/31 72/66/72 
f 84/77/84 83/78/83 68/56/68 1/1/1 
f 82/68/82 81/67/81 40/36/40 39/35/39 
f 94/75/94 93/76/93 4/4/4 76/66/76 
f 96/74/96 95/73/95 56/46/56 55/45/55 
f 92/77/92 91/78/91 80/56/80 32/1/32 
f 90/68/90 89/67/89 64/36/64 63/35/63 
s 1073741840
f 34/30/34 36/32/36 38/34/38 40/36/40 81/67/81 88/74/88 47/45/47 45/43/45 43/41/43 41/37/41 14/40/14 13/27/13 
f 22/40/22 21/27/21 58/30/58 60/32/60 62/34/62 64/36/64 89/67/89 96/74/96 55/45/55 53/43/53 51/41/51 49/37/49 
f 68/55/68 83/69/83 82/68/82 39/35/39 
f 48/46/48 87/73/87 86/72/86 72/65/72 
f 56/46/56 95/73/95 94/72/94 76/65/76 
f 80/55/80 91/69/91 90/68/90 63/35/63 
s 2147483648
f 4/4/97 97/79/98 98/80/99 1/1/100 
f 97/79/98 99/81/101 100/82/102 98/80/99 
f 99/81/101 101/83/103 102/84/104 100/82/102 
f 101/83/103 103/85/105 104/86/106 102/84/104 
f 32/1/107 31/4/108 105/79/109 106/80/110 
f 106/80/110 105/79/109 107/81/111 108/82/112 
f 108/82/112 107/81/111 109/83/113 110/84/114 
f 110/84/114 109/83/113 111/85/115 112/86/116 
s 2
f 113/87/117 114/88/118 115/89/119 116/90/120 117/91/121 118/92/122 119/93/123 120/94/124 121/95/125 122/96/126 123/97/127 124/98/128 125/99/129 126/100/130 127/101/131 128/102/132 129/103/133 130/104/134 131/105/135 132/106/136 133/107/137 134/108/138 135/109/139 136/110/140 137/111/141 138/112/142 139/113/143 140/114/144 141/115/145 142/116/146 143/117/147 144/118/148 145/119/149 
f 146/102/150 147/103/151 148/104/152 149/105/153 150/106/154 151/107/155 152/108/156 153/109/157 154/110/158 155/111/159 156/112/160 157/113/161 158/114/162 159/115/163 160/116/164 161/117/165 162/118/166 163/119/167 164/87/168 165/88/169 166/89/170 167/90/171 168/91/172 169/92/173 170/93/174 171/94/175 172/95/176 173/96/177 174/97/178 175/98/179 176/99/180 177/100/181 178/101/182 
s 2147483649
f 147/120/151 146/121/150 179/122/183 180/123/184 127/124/131 126/125/130 
f 148/126/152 147/120/151 126/125/130 125/127/129 
f 149/128/153 148/126/152 125/127/129 124/129/128 
f 150/130/154 149/128/153 124/129/128 123/131/127 
f 151/132/155 150/130/154 123/131/127 122/133/126 
f 152/134/156 151/132/155 122/133/126 121/135/125 
f 153/136/157 152/134/156 121/135/125 120/137/124 
f 154/138/158 153/136/157 120/137/124 119/139/123 
f 155/140/159 154/138/158 119/139/123 118/141/122 
f 156/142/160 155/140/159 118/141/122 117/143/121 
f 157/144/161 156/142/160 117/143/121 116/145/120 
f 158/146/162 157/144/161 116/145/120 115/147/119 
f 159/148/163 158/146/162 115/147/119 114/149/118 
f 160/150/164 159/148/163 114/149/118 113/151/117 
f 161/152/165 160/150/164 113/151/117 145/153/149 
f 162/154/166 161/152/165 145/153/149 144/155/148 
f 163/153/167 162/155/166 144/154/148 143/152/147 
f 164/151/168 163/153/167 143/152/147 142/150/146 
f 165/149/169 164/151/168 142/150/146 141/148/145 
f 166/147/170 165/149/169 141/148/145 140/146/144 
f 167/145/171 166/147/170 140/146/144 139/144/143 
f 168/143/172 167/145/171 139/144/143 138/142/142 
f 169/141/173 168/143/172 138/142/142 137/140/141 
f 170/139/174 169/141/173 137/140/141 136/138/140 
f 171/137/175 170/139/174 136/138/140 135/136/139 
f 172/135/176 171/137/175 135/136/139 134/134/138 
f 173/133/177 172/135/176 134/134/138 133/132/137 
f 174/131/178 173/133/177 133/132/137 132/130/136 
f 175/129/179 174/131/178 132/130/136 131/128/135 
f 176/127/180 175/129/179 131/128/135 130/126/134 
f 177/125/181 176/127/180 130/126/134 129/120/133 
f 178/124/182 177/125/181 129/120/133 128/121/132 181/122/185 182/123/186 
s 4
f 127/156/131 180/157/184 181/158/185 128/159/132 
f 179/160/183 146/161/150 178/162/182 182/163/186 
s 2147483650
f 182/123/186 181/122/185 112/86/116 111/85/115 
f 180/123/184 179/122/183 104/86/106 103/85/105 
s 8
f 4/164/97 32/165/107 106/166/110 97/167/98 
f 98/166/99 105/167/109 31/164/108 1/165/100 
f 98/166/99 100/168/102 107/169/111 105/167/109 
f 100/168/102 102/170/104 109/171/113 107/169/111 
f 102/170/104 104/172/106 111/173/115 109/171/113 
f 104/172/106 179/102/183 182/101/186 111/173/115 
f 112/172/116 181/102/185 180/101/184 103/173/105 
f 110/170/114 112/172/116 103/173/105 101/171/103 
f 108/168/112 110/170/114 101/171/103 99/169/101 
f 106/166/110 108/168/112 99/169/101 97/167/98 
# 129 polygons

