# 3ds Max Wavefront OBJ Exporter v0.97b - (c)2007 guruware
# File Created: 03.04.2019 23:00:55

mtllib table.mtl

#
# object Table
#

v  -30.0197 30.0000 53.9961
v  30.0197 30.0000 53.9961
v  30.0197 30.0000 -53.9961
v  -30.0197 30.0000 -53.9961
v  -30.0197 28.8189 53.9961
v  30.0197 28.8189 53.9961
v  30.0197 28.8189 -53.9961
v  -30.0197 28.8189 -53.9961
v  -26.3780 0.0000 44.0945
v  -26.3780 0.0000 42.5197
v  -24.8032 0.0000 42.5197
v  -24.8032 0.0000 44.0945
v  -24.8032 28.8189 44.0945
v  -26.3780 28.8189 44.0945
v  -24.8032 18.8976 42.5197
v  -24.8032 20.4724 42.5197
v  -24.8032 28.8189 42.5197
v  -26.3780 18.8976 42.5197
v  -26.3780 28.8189 42.5197
v  -26.3780 20.4724 42.5197
v  24.8031 0.0000 44.0945
v  24.8031 0.0000 42.5197
v  26.3780 0.0000 42.5197
v  26.3780 0.0000 44.0945
v  26.3780 28.8189 44.0945
v  24.8031 28.8189 44.0945
v  26.3780 18.8976 42.5197
v  26.3780 20.4724 42.5197
v  26.3780 28.8189 42.5197
v  24.8031 18.8976 42.5197
v  24.8031 28.8189 42.5197
v  24.8031 20.4724 42.5197
v  24.8031 0.0000 -42.5197
v  24.8031 0.0000 -44.0945
v  26.3780 0.0000 -44.0945
v  26.3780 0.0000 -42.5197
v  26.3780 18.8976 -42.5197
v  24.8031 18.8976 -42.5197
v  26.3780 28.8189 -44.0945
v  26.3780 28.8189 -42.5197
v  26.3780 20.4724 -42.5197
v  24.8031 28.8189 -44.0945
v  24.8031 20.4724 -42.5197
v  24.8031 28.8189 -42.5197
v  -26.3780 0.0000 -42.5197
v  -26.3780 0.0000 -44.0945
v  -24.8032 0.0000 -44.0945
v  -24.8032 0.0000 -42.5197
v  -24.8032 18.8976 -42.5197
v  -26.3780 18.8976 -42.5197
v  -24.8032 28.8189 -44.0945
v  -24.8032 28.8189 -42.5197
v  -24.8032 20.4724 -42.5197
v  -26.3780 28.8189 -44.0945
v  -26.3780 20.4724 -42.5197
v  -26.3780 28.8189 -42.5197
v  -26.3780 0.0000 8.6614
v  -26.3780 0.0000 7.0866
v  -24.8032 0.0000 7.0866
v  -24.8032 0.0000 8.6614
v  -24.8032 18.8976 8.6614
v  -26.3780 18.8976 8.6614
v  -24.8032 28.8189 7.0866
v  -24.8032 28.8189 8.6614
v  -24.8032 20.4724 8.6614
v  -26.3780 28.8189 7.0866
v  -26.3780 20.4724 8.6614
v  -26.3780 28.8189 8.6614
v  -26.3780 0.0000 -7.0866
v  -26.3780 0.0000 -8.6614
v  -24.8032 0.0000 -8.6614
v  -24.8032 0.0000 -7.0866
v  -24.8032 28.8189 -7.0866
v  -26.3780 28.8189 -7.0866
v  -24.8032 18.8976 -8.6614
v  -24.8032 20.4724 -8.6614
v  -24.8032 28.8189 -8.6614
v  -26.3780 18.8976 -8.6614
v  -26.3780 28.8189 -8.6614
v  -26.3780 20.4724 -8.6614
v  24.8031 0.0000 -7.0866
v  24.8031 0.0000 -8.6614
v  26.3780 0.0000 -8.6614
v  26.3780 0.0000 -7.0866
v  26.3780 28.8189 -7.0866
v  24.8031 28.8189 -7.0866
v  26.3780 18.8976 -8.6614
v  26.3780 20.4724 -8.6614
v  26.3780 28.8189 -8.6614
v  24.8031 18.8976 -8.6614
v  24.8031 28.8189 -8.6614
v  24.8031 20.4724 -8.6614
v  24.8031 0.0000 8.6614
v  24.8031 0.0000 7.0866
v  26.3780 0.0000 7.0866
v  26.3780 0.0000 8.6614
v  26.3780 18.8976 8.6614
v  24.8031 18.8976 8.6614
v  26.3780 28.8189 7.0866
v  26.3780 28.8189 8.6614
v  26.3780 20.4724 8.6614
v  24.8031 28.8189 7.0866
v  24.8031 20.4724 8.6614
v  24.8031 28.8189 8.6614
v  35.4331 36.7913 0.0000
v  -35.4331 36.7913 -0.0000
v  -35.4331 30.7874 -0.0000
v  35.4331 30.7874 0.0000
v  -35.4331 29.4094 -0.2953
v  -35.4331 29.4094 0.2953
v  -36.0236 29.4094 0.2953
v  -36.0236 29.4094 -0.2953
v  -35.4331 36.7913 -0.2953
v  -36.0236 36.7913 -0.2953
v  -36.0236 36.7913 0.2953
v  -35.4331 36.7913 0.2953
v  -35.4331 30.0000 -0.2953
v  -35.4331 30.0000 0.2953
v  -30.0197 29.4094 -0.2953
v  -30.0197 29.4094 0.2953
v  -30.0197 30.0000 0.2953
v  -30.0197 30.0000 -0.2953
v  35.4331 29.4094 0.2953
v  35.4331 29.4094 -0.2953
v  36.0236 29.4094 -0.2953
v  36.0236 29.4094 0.2953
v  35.4331 36.7913 0.2953
v  36.0236 36.7913 0.2953
v  36.0236 36.7913 -0.2953
v  35.4331 36.7913 -0.2953
v  35.4331 30.0000 0.2953
v  35.4331 30.0000 -0.2953
v  30.0197 29.4094 0.2953
v  30.0197 29.4094 -0.2953
v  30.0197 30.0000 -0.2953
v  30.0197 30.0000 0.2953
# 136 vertices

vn -0.5774 0.5774 0.5774
vn 0.5774 0.5774 0.5774
vn 0.5774 0.5774 -0.5774
vn -0.5774 0.5774 -0.5774
vn -0.5774 -0.5774 0.5774
vn 0.5774 -0.5774 0.5774
vn 0.5774 -0.5774 -0.5774
vn -0.5774 -0.5774 -0.5774
vn 0.7071 0.0000 0.7071
vn -0.7071 0.0000 0.7071
vn 0.9045 -0.3015 -0.3015
vn 0.9045 0.3015 -0.3015
vn 0.7071 0.0000 -0.7071
vn -0.9045 -0.3015 -0.3015
vn -0.7071 0.0000 -0.7071
vn -0.9045 0.3015 -0.3015
vn 0.9045 -0.3015 0.3015
vn -0.9045 -0.3015 0.3015
vn 0.9045 0.3015 0.3015
vn -0.9045 0.3015 0.3015
vn -0.7071 -0.0000 0.7071
vn -0.0000 -0.0000 1.0000
vn -0.0000 -0.7071 -0.7071
vn 0.0000 -0.7071 0.7071
vn 0.3015 0.3015 -0.9045
vn 0.3015 0.3015 0.9045
vn 0.0000 0.7071 0.7071
vn -0.0000 0.7071 -0.7071
vn 0.0000 -0.7071 -0.7071
vn -0.3015 0.3015 0.9045
vn -0.3015 0.3015 -0.9045
vn 0.0000 0.7071 -0.7071
# 32 vertex normals

vt 0.0005 0.0102 0.0000
vt 0.3775 0.0102 0.0000
vt 0.3775 0.6883 0.0000
vt 0.0005 0.6883 0.0000
vt 0.8225 0.0102 0.0000
vt 0.8225 0.3872 0.0000
vt 0.8151 0.3872 0.0000
vt 0.8151 0.0102 0.0000
vt 0.7740 0.0102 0.0000
vt 0.7740 0.6883 0.0000
vt 0.7666 0.6883 0.0000
vt 0.7666 0.0102 0.0000
vt 0.3861 0.0199 0.0000
vt 0.3861 0.3969 0.0000
vt 0.3787 0.3969 0.0000
vt 0.3787 0.0199 0.0000
vt 0.0053 0.0005 0.0000
vt 0.6834 0.0005 0.0000
vt 0.6834 0.0079 0.0000
vt 0.0053 0.0079 0.0000
vt 0.3884 0.0102 0.0000
vt 0.7654 0.0102 0.0000
vt 0.7654 0.6883 0.0000
vt 0.3884 0.6883 0.0000
vt 0.6611 0.8049 0.0000
vt 0.6611 0.7950 0.0000
vt 0.6709 0.7950 0.0000
vt 0.6709 0.8049 0.0000
vt 0.0199 0.7132 0.0000
vt 0.0298 0.7132 0.0000
vt 0.0298 0.8942 0.0000
vt 0.0199 0.8942 0.0000
vt 0.3007 0.8942 0.0000
vt 0.2909 0.8942 0.0000
vt 0.2909 0.7755 0.0000
vt 0.2909 0.7656 0.0000
vt 0.2909 0.7132 0.0000
vt 0.3007 0.7132 0.0000
vt 0.9095 0.9896 0.0000
vt 0.9095 0.9995 0.0000
vt 0.7908 0.9995 0.0000
vt 0.7908 0.9896 0.0000
vt 0.1815 0.9163 0.0000
vt 0.1815 0.9262 0.0000
vt 0.0005 0.9262 0.0000
vt 0.0005 0.9163 0.0000
vt 0.0529 0.9163 0.0000
vt 0.0628 0.9163 0.0000
vt 0.6714 0.7945 0.0000
vt 0.6714 0.7846 0.0000
vt 0.6813 0.7846 0.0000
vt 0.6813 0.7945 0.0000
vt 0.0053 0.7132 0.0000
vt 0.0152 0.7132 0.0000
vt 0.0152 0.8942 0.0000
vt 0.0053 0.8942 0.0000
vt 0.7856 0.8748 0.0000
vt 0.7757 0.8748 0.0000
vt 0.7757 0.7561 0.0000
vt 0.7757 0.7463 0.0000
vt 0.7757 0.6938 0.0000
vt 0.7856 0.6938 0.0000
vt 0.8248 0.5145 0.0000
vt 0.8346 0.5145 0.0000
vt 0.8346 0.6331 0.0000
vt 0.8248 0.6331 0.0000
vt 0.3207 0.8748 0.0000
vt 0.3108 0.8748 0.0000
vt 0.3108 0.6938 0.0000
vt 0.3207 0.6938 0.0000
vt 0.3207 0.7463 0.0000
vt 0.3207 0.7561 0.0000
vt 0.4285 0.7969 0.0000
vt 0.4285 0.7870 0.0000
vt 0.4384 0.7870 0.0000
vt 0.4384 0.7969 0.0000
vt 0.7349 0.8151 0.0000
vt 0.7349 0.8250 0.0000
vt 0.6163 0.8250 0.0000
vt 0.6163 0.8151 0.0000
vt 0.9912 0.7175 0.0000
vt 0.9912 0.7274 0.0000
vt 0.8102 0.7274 0.0000
vt 0.8102 0.7175 0.0000
vt 0.8626 0.7175 0.0000
vt 0.8725 0.7175 0.0000
vt 0.5112 0.6938 0.0000
vt 0.5112 0.7037 0.0000
vt 0.3302 0.7037 0.0000
vt 0.3302 0.6938 0.0000
vt 0.9718 0.7375 0.0000
vt 0.9718 0.7474 0.0000
vt 0.8531 0.7474 0.0000
vt 0.8432 0.7474 0.0000
vt 0.7908 0.7474 0.0000
vt 0.7908 0.7375 0.0000
vt 0.4280 0.7865 0.0000
vt 0.4182 0.7865 0.0000
vt 0.4182 0.7766 0.0000
vt 0.4280 0.7766 0.0000
vt 0.9095 0.9751 0.0000
vt 0.9095 0.9850 0.0000
vt 0.7908 0.9850 0.0000
vt 0.7908 0.9751 0.0000
vt 0.5769 0.7617 0.0000
vt 0.5868 0.7617 0.0000
vt 0.5868 0.9427 0.0000
vt 0.5769 0.9427 0.0000
vt 0.5769 0.8903 0.0000
vt 0.5769 0.8804 0.0000
vt 0.0344 0.7132 0.0000
vt 0.0443 0.7132 0.0000
vt 0.0443 0.8942 0.0000
vt 0.0344 0.8942 0.0000
vt 0.5969 0.7617 0.0000
vt 0.6068 0.7617 0.0000
vt 0.6068 0.8804 0.0000
vt 0.6068 0.8903 0.0000
vt 0.6068 0.9427 0.0000
vt 0.5969 0.9427 0.0000
vt 0.6714 0.8049 0.0000
vt 0.6714 0.7950 0.0000
vt 0.6813 0.7950 0.0000
vt 0.6813 0.8049 0.0000
vt 0.3034 0.9072 0.0000
vt 0.3034 0.9171 0.0000
vt 0.1847 0.9171 0.0000
vt 0.1847 0.9072 0.0000
vt 0.0783 0.8942 0.0000
vt 0.0684 0.8942 0.0000
vt 0.0684 0.7132 0.0000
vt 0.0783 0.7132 0.0000
vt 0.0783 0.7656 0.0000
vt 0.0783 0.7755 0.0000
vt 0.7536 0.7084 0.0000
vt 0.7536 0.7183 0.0000
vt 0.5726 0.7183 0.0000
vt 0.5726 0.7084 0.0000
vt 0.1815 0.6938 0.0000
vt 0.1815 0.7037 0.0000
vt 0.0628 0.7037 0.0000
vt 0.0529 0.7037 0.0000
vt 0.0005 0.7037 0.0000
vt 0.0005 0.6938 0.0000
vt 0.4182 0.7969 0.0000
vt 0.4182 0.7870 0.0000
vt 0.4280 0.7870 0.0000
vt 0.4280 0.7969 0.0000
vt 0.7536 0.6938 0.0000
vt 0.7536 0.7037 0.0000
vt 0.5726 0.7037 0.0000
vt 0.5726 0.6938 0.0000
vt 0.3544 0.7617 0.0000
vt 0.3643 0.7617 0.0000
vt 0.3643 0.8804 0.0000
vt 0.3643 0.8903 0.0000
vt 0.3643 0.9427 0.0000
vt 0.3544 0.9427 0.0000
vt 0.8102 0.5145 0.0000
vt 0.8201 0.5145 0.0000
vt 0.8201 0.6331 0.0000
vt 0.8102 0.6331 0.0000
vt 0.8194 0.7617 0.0000
vt 0.8292 0.7617 0.0000
vt 0.8292 0.9427 0.0000
vt 0.8194 0.9427 0.0000
vt 0.8194 0.8903 0.0000
vt 0.8194 0.8804 0.0000
vt 0.4790 0.8316 0.0000
vt 0.4790 0.8415 0.0000
vt 0.4691 0.8415 0.0000
vt 0.4691 0.8316 0.0000
vt 0.5112 0.7084 0.0000
vt 0.5112 0.7183 0.0000
vt 0.3302 0.7183 0.0000
vt 0.3302 0.7084 0.0000
vt 0.9912 0.4951 0.0000
vt 0.9912 0.5049 0.0000
vt 0.8725 0.5049 0.0000
vt 0.8626 0.5049 0.0000
vt 0.8102 0.5049 0.0000
vt 0.8102 0.4951 0.0000
vt 0.6913 0.7229 0.0000
vt 0.6913 0.7328 0.0000
vt 0.5726 0.7328 0.0000
vt 0.5726 0.7229 0.0000
vt 0.9718 0.9600 0.0000
vt 0.9718 0.9699 0.0000
vt 0.7908 0.9699 0.0000
vt 0.7908 0.9600 0.0000
vt 0.8432 0.9600 0.0000
vt 0.8531 0.9600 0.0000
vt 0.6818 0.7945 0.0000
vt 0.6818 0.7846 0.0000
vt 0.6917 0.7846 0.0000
vt 0.6917 0.7945 0.0000
vt 0.4925 0.8151 0.0000
vt 0.4925 0.8250 0.0000
vt 0.3738 0.8250 0.0000
vt 0.3738 0.8151 0.0000
vt 0.5631 0.8748 0.0000
vt 0.5532 0.8748 0.0000
vt 0.5532 0.6938 0.0000
vt 0.5631 0.6938 0.0000
vt 0.5631 0.7463 0.0000
vt 0.5631 0.7561 0.0000
vt 0.5112 0.7229 0.0000
vt 0.5112 0.7328 0.0000
vt 0.3302 0.7328 0.0000
vt 0.3302 0.7229 0.0000
vt 0.5432 0.8748 0.0000
vt 0.5333 0.8748 0.0000
vt 0.5333 0.7561 0.0000
vt 0.5333 0.7463 0.0000
vt 0.5333 0.6938 0.0000
vt 0.5432 0.6938 0.0000
vt 0.9160 0.6313 0.0000
vt 0.9160 0.5789 0.0000
vt 0.9258 0.5789 0.0000
vt 0.9258 0.6313 0.0000
vt 0.8848 0.6313 0.0000
vt 0.8848 0.5789 0.0000
vt 0.8947 0.5789 0.0000
vt 0.8947 0.6313 0.0000
vt 0.8966 0.8737 0.0000
vt 0.8966 0.8213 0.0000
vt 0.9065 0.8213 0.0000
vt 0.9065 0.8737 0.0000
vt 0.8952 0.6313 0.0000
vt 0.8952 0.5789 0.0000
vt 0.9051 0.5789 0.0000
vt 0.9051 0.6313 0.0000
vt 0.8655 0.8737 0.0000
vt 0.8655 0.8213 0.0000
vt 0.8753 0.8213 0.0000
vt 0.8753 0.8737 0.0000
vt 0.8862 0.8737 0.0000
vt 0.8862 0.8213 0.0000
vt 0.8961 0.8213 0.0000
vt 0.8961 0.8737 0.0000
vt 0.9056 0.6313 0.0000
vt 0.9056 0.5789 0.0000
vt 0.9155 0.5789 0.0000
vt 0.9155 0.6313 0.0000
vt 0.8758 0.8737 0.0000
vt 0.8758 0.8213 0.0000
vt 0.8857 0.8213 0.0000
vt 0.8857 0.8737 0.0000
vt 0.8393 0.0102 0.0000
vt 0.8492 0.0102 0.0000
vt 0.8492 0.2228 0.0000
vt 0.8393 0.2228 0.0000
vt 0.8637 0.2228 0.0000
vt 0.8539 0.2228 0.0000
vt 0.8539 0.0102 0.0000
vt 0.8637 0.0102 0.0000
vt 0.3302 0.7617 0.0000
vt 0.3401 0.7617 0.0000
vt 0.3401 0.9743 0.0000
vt 0.3302 0.9743 0.0000
vt 0.8056 0.6689 0.0000
vt 0.7957 0.6689 0.0000
vt 0.7957 0.4563 0.0000
vt 0.8056 0.4563 0.0000
vt 0.8346 0.4458 0.0000
vt 0.8248 0.4458 0.0000
vt 0.8248 0.2332 0.0000
vt 0.8346 0.2332 0.0000
vt 0.8346 0.2228 0.0000
vt 0.8248 0.2228 0.0000
vt 0.8248 0.0102 0.0000
vt 0.8346 0.0102 0.0000
vt 0.8783 0.2228 0.0000
vt 0.8684 0.2228 0.0000
vt 0.8684 0.0102 0.0000
vt 0.8783 0.0102 0.0000
vt 0.8829 0.0102 0.0000
vt 0.8928 0.0102 0.0000
vt 0.8928 0.2228 0.0000
vt 0.8829 0.2228 0.0000
vt 0.7763 0.4552 0.0000
vt 0.7763 0.0102 0.0000
vt 0.8140 0.0102 0.0000
vt 0.8140 0.4552 0.0000
vt 0.6844 0.8736 0.0000
vt 0.6844 0.8773 0.0000
vt 0.6807 0.8773 0.0000
vt 0.6807 0.8736 0.0000
vt 0.6648 0.7945 0.0000
vt 0.6611 0.7945 0.0000
vt 0.6611 0.7908 0.0000
vt 0.6648 0.7908 0.0000
vt 0.7317 0.8270 0.0000
vt 0.7354 0.8270 0.0000
vt 0.7354 0.8734 0.0000
vt 0.7317 0.8734 0.0000
vt 0.7233 0.8689 0.0000
vt 0.6807 0.8689 0.0000
vt 0.6807 0.8652 0.0000
vt 0.7233 0.8652 0.0000
vt 0.7184 0.8736 0.0000
vt 0.7184 0.8773 0.0000
vt 0.4182 0.8011 0.0000
vt 0.4182 0.7974 0.0000
vt 0.4521 0.7974 0.0000
vt 0.4521 0.8011 0.0000
vt 0.4130 0.8058 0.0000
vt 0.4130 0.7718 0.0000
vt 0.4167 0.7718 0.0000
vt 0.4167 0.8058 0.0000
vt 0.4130 0.8095 0.0000
vt 0.4846 0.8647 0.0000
vt 0.4809 0.8610 0.0000
vt 0.4809 0.8270 0.0000
vt 0.4846 0.8270 0.0000
vt 0.4846 0.8610 0.0000
vt 0.4383 0.8647 0.0000
vt 0.4383 0.8610 0.0000
vt 0.4594 0.8058 0.0000
vt 0.4594 0.8095 0.0000
vt 0.7359 0.8610 0.0000
vt 0.7396 0.8610 0.0000
vt 0.7396 0.8647 0.0000
vt 0.7359 0.8647 0.0000
vt 0.6818 0.8012 0.0000
vt 0.6855 0.8012 0.0000
vt 0.6855 0.8049 0.0000
vt 0.6818 0.8049 0.0000
vt 0.7275 0.8270 0.0000
vt 0.7312 0.8270 0.0000
vt 0.7312 0.8734 0.0000
vt 0.7275 0.8734 0.0000
vt 0.7233 0.8731 0.0000
vt 0.6807 0.8731 0.0000
vt 0.6807 0.8694 0.0000
vt 0.7233 0.8694 0.0000
vt 0.7359 0.8270 0.0000
vt 0.7396 0.8270 0.0000
vt 0.4521 0.8016 0.0000
vt 0.4521 0.8053 0.0000
vt 0.4182 0.8053 0.0000
vt 0.4182 0.8016 0.0000
vt 0.7271 0.8308 0.0000
vt 0.7271 0.8647 0.0000
vt 0.7233 0.8647 0.0000
vt 0.7233 0.8308 0.0000
vt 0.7271 0.8270 0.0000
vt 0.6554 0.7718 0.0000
vt 0.6591 0.7755 0.0000
vt 0.6591 0.8095 0.0000
vt 0.6554 0.8095 0.0000
vt 0.6554 0.7755 0.0000
vt 0.7018 0.7718 0.0000
vt 0.7018 0.7755 0.0000
vt 0.6807 0.8308 0.0000
vt 0.6807 0.8270 0.0000
# 356 texture coords

o Table
g Table
usemtl Material__110
s 4
f 1/1/1 2/2/2 3/3/3 4/4/4 
s 8
f 5/5/5 6/6/6 2/7/2 1/8/1 
s 16
f 6/9/6 7/10/7 3/11/3 2/12/2 
s 32
f 7/13/7 8/14/8 4/15/4 3/16/3 
s 64
f 8/17/8 5/18/5 1/19/1 4/20/4 
s 1
f 8/21/8 7/22/7 6/23/6 5/24/5 
s 2
f 9/25/5 10/26/8 11/27/7 12/28/6 
s 8
f 9/29/5 12/30/6 13/31/9 14/32/10 
s 16
f 12/33/6 11/34/7 15/35/11 16/36/12 17/37/13 13/38/9 
s 32
f 11/39/7 10/40/8 18/41/14 15/42/11 
s 64
f 10/43/8 9/44/5 14/45/10 19/46/15 20/47/16 18/48/14 
s 2
f 21/49/5 22/50/8 23/51/7 24/52/6 
s 8
f 21/53/5 24/54/6 25/55/9 26/56/10 
s 16
f 24/57/6 23/58/7 27/59/11 28/60/12 29/61/13 25/62/9 
s 32
f 23/63/7 22/64/8 30/65/14 27/66/11 
s 64
f 22/67/8 21/68/5 26/69/10 31/70/15 32/71/16 30/72/14 
s 2
f 33/73/5 34/74/8 35/75/7 36/76/6 
s 8
f 33/77/5 36/78/6 37/79/17 38/80/18 
s 16
f 36/81/6 35/82/7 39/83/13 40/84/9 41/85/19 37/86/17 
s 32
f 35/87/7 34/88/8 42/89/15 39/90/13 
s 64
f 34/91/8 33/92/5 38/93/18 43/94/20 44/95/21 42/96/15 
s 2
f 45/97/5 46/98/8 47/99/7 48/100/6 
s 8
f 45/101/5 48/102/6 49/103/17 50/104/18 
s 16
f 48/105/6 47/106/7 51/107/13 52/108/9 53/109/19 49/110/17 
s 32
f 47/111/7 46/112/8 54/113/15 51/114/13 
s 64
f 46/115/8 45/116/5 50/117/18 55/118/20 56/119/21 54/120/15 
s 2
f 57/121/5 58/122/8 59/123/7 60/124/6 
s 8
f 57/125/5 60/126/6 61/127/17 62/128/18 
s 16
f 60/129/6 59/130/7 63/131/13 64/132/9 65/133/19 61/134/17 
s 32
f 59/135/7 58/136/8 66/137/15 63/138/13 
s 64
f 58/139/8 57/140/5 62/141/18 67/142/20 68/143/10 66/144/15 
s 2
f 69/145/5 70/146/8 71/147/7 72/148/6 
s 8
f 69/149/5 72/150/6 73/151/9 74/152/10 
s 16
f 72/153/6 71/154/7 75/155/11 76/156/12 77/157/13 73/158/9 
s 32
f 71/159/7 70/160/8 78/161/14 75/162/11 
s 64
f 70/163/8 69/164/5 74/165/10 79/166/15 80/167/16 78/168/14 
s 2
f 81/169/5 82/170/8 83/171/7 84/172/6 
s 8
f 81/173/5 84/174/6 85/175/9 86/176/10 
s 16
f 84/177/6 83/178/7 87/179/11 88/180/12 89/181/13 85/182/9 
s 32
f 83/183/7 82/184/8 90/185/14 87/186/11 
s 64
f 82/187/8 81/188/5 86/189/10 91/190/15 92/191/16 90/192/14 
s 2
f 93/193/5 94/194/8 95/195/7 96/196/6 
s 8
f 93/197/5 96/198/6 97/199/17 98/200/18 
s 16
f 96/201/6 95/202/7 99/203/13 100/204/9 101/205/19 97/206/17 
s 32
f 95/207/7 94/208/8 102/209/15 99/210/13 
s 64
f 94/211/8 93/212/5 98/213/18 103/214/20 104/215/10 102/216/15 
s 32
f 20/217/16 19/218/15 17/219/13 16/220/12 
f 32/221/16 31/222/15 29/223/13 28/224/12 
s 8
f 41/225/19 40/226/9 44/227/21 43/228/20 
f 53/229/19 52/230/9 56/231/21 55/232/20 
f 65/233/19 64/234/9 68/235/10 67/236/20 
s 32
f 80/237/16 79/238/15 77/239/13 76/240/12 
f 92/241/16 91/242/15 89/243/13 88/244/12 
s 8
f 101/245/19 100/246/9 104/247/10 103/248/20 
s 1
f 30/72/14 32/71/16 103/214/20 98/213/18 
s 2
f 32/249/16 28/250/12 101/251/19 103/252/20 
s 1
f 28/60/12 27/59/11 97/206/17 101/205/19 
s 2
f 27/253/11 30/254/14 98/255/18 97/256/17 
s 1
f 43/94/20 38/93/18 90/192/14 92/191/16 
s 2
f 38/257/18 37/258/17 87/259/11 90/260/14 
s 1
f 37/86/17 41/85/19 88/180/12 87/179/11 
s 2
f 41/261/19 43/262/20 92/263/16 88/264/12 
s 1
f 49/110/17 53/109/19 76/156/12 75/155/11 
s 2
f 53/265/19 55/266/20 80/267/16 76/268/12 
s 1
f 55/118/20 50/117/18 78/168/14 80/167/16 
s 2
f 50/269/18 49/270/17 75/271/11 78/272/14 
s 1
f 16/36/12 15/35/11 61/134/17 65/133/19 
s 2
f 15/273/11 18/274/14 62/275/18 61/276/17 
s 1
f 18/48/14 20/47/16 67/142/20 62/141/18 
s 2
f 20/277/16 16/278/12 65/279/19 67/280/20 
s 1
f 105/281/22 106/282/22 107/283/22 108/284/22 
s 2
f 109/285/23 110/286/24 111/287/5 112/288/8 
s 4
f 113/289/3 114/290/4 115/291/1 116/292/2 
s 16
f 112/293/8 111/294/5 115/295/1 114/296/4 
s 64
f 117/297/25 113/298/3 116/299/2 118/300/26 
s off
f 110/286/24 109/285/23 119/301/23 120/302/24 
f 117/303/25 118/304/26 121/305/27 122/306/28 
s 1
f 110/307/24 120/308/24 121/309/27 118/310/26 111/311/5 
f 112/312/8 117/313/25 122/314/28 119/315/23 109/316/23 
f 112/312/8 114/317/4 113/318/3 117/313/25 
f 118/310/26 116/319/2 115/320/1 111/311/5 
s 2
f 123/321/24 124/322/29 125/323/7 126/324/6 
s 4
f 127/325/1 128/326/2 129/327/3 130/328/4 
s 16
f 126/329/6 125/330/7 129/331/3 128/332/2 
s 64
f 131/333/30 127/334/1 130/335/4 132/336/31 
s off
f 124/322/29 123/321/24 133/337/24 134/338/29 
f 131/339/30 132/340/31 135/341/32 136/342/27 
s 1
f 124/343/29 134/344/29 135/345/32 132/346/31 125/347/7 
f 126/348/6 131/349/30 136/350/27 133/351/24 123/352/24 
f 126/348/6 128/353/2 127/354/1 131/349/30 
f 132/346/31 130/355/4 129/356/3 125/347/7 
# 91 polygons

