# 3ds Max Wavefront OBJ Exporter v0.97b - (c)2007 guruware
# File Created: 15.04.2019 04:17:26

mtllib room.mtl

#
# object Room
#

v  -3500.0000 50.0000 4500.0000
v  -3500.0000 3000.0000 4500.0000
v  3500.0000 3000.0000 4500.0000
v  3500.0000 50.0000 4500.0000
v  -3470.0000 0.0000 4470.0000
v  3470.0000 0.0000 4470.0000
v  -100.0001 0.0000 -4485.0000
v  -100.0001 0.0000 -4470.0000
v  -100.0001 25.0000 -4485.0000
v  -1300.0000 0.0000 -4470.0000
v  -1300.0000 -0.0000 -4485.0000
v  -1300.0001 25.0000 -4485.0000
v  -1299.9999 2100.0000 -4485.0000
v  -100.0001 2100.0000 -4485.0000
v  3470.0000 0.0000 -4470.0000
v  -3470.0000 0.0000 -4470.0000
v  -1299.9999 2100.0000 -4500.0000
v  -100.0001 2100.0000 -4500.0000
v  -1300.0001 50.0000 -4500.0000
v  -3500.0000 50.0000 -4500.0000
v  3500.0000 50.0000 -4500.0000
v  -100.0001 50.0000 -4500.0000
v  3500.0000 3000.0000 -4500.0000
v  -3500.0000 3000.0000 -4500.0000
# 24 vertices

vn 0.6739 0.3027 -0.6739
vn 0.7071 0.0000 -0.7071
vn -0.7071 0.0000 -0.7071
vn -0.6739 0.3027 -0.6739
vn 0.3956 0.8289 -0.3956
vn -0.3956 0.8289 -0.3956
vn -0.5774 0.5773 0.5774
vn -0.1784 0.9559 0.2332
vn -0.1433 0.2590 0.9552
vn 0.1784 0.9559 0.2332
vn 0.5773 0.5774 0.5773
vn 0.1320 -0.9541 0.2690
vn -0.5774 0.5774 0.5774
vn 0.5774 0.5774 0.5774
vn -0.3956 0.8289 0.3956
vn 0.3956 0.8289 0.3956
vn -0.3015 0.3015 0.9045
vn 0.3015 0.3015 0.9045
vn -0.6517 0.2025 0.7310
vn 0.6739 0.3027 0.6739
vn -0.6739 0.3027 0.6739
vn 0.6517 0.2025 0.7310
vn -0.7071 0.0000 0.7071
vn 0.7071 0.0000 0.7071
# 24 vertex normals

vt 0.2002 0.2004 0.0000
vt 0.2002 0.0093 0.0000
vt 0.6472 0.0093 0.0000
vt 0.6472 0.2004 0.0000
vt 0.2022 0.2037 0.0000
vt 0.6453 0.2037 0.0000
vt 0.4166 0.7860 0.0000
vt 0.4177 0.7860 0.0000
vt 0.4166 0.7880 0.0000
vt 0.3415 0.7860 0.0000
vt 0.3427 0.7860 0.0000
vt 0.3427 0.7880 0.0000
vt 0.3407 0.7838 0.0000
vt 0.3407 0.7828 0.0000
vt 0.4173 0.7828 0.0000
vt 0.4173 0.7838 0.0000
vt 0.6540 0.7974 0.0000
vt 0.9914 0.7974 0.0000
vt 0.9955 0.7974 0.0000
vt 0.9955 0.9926 0.0000
vt 0.9914 0.9926 0.0000
vt 0.6540 0.9926 0.0000
vt 0.6453 0.7828 0.0000
vt 0.2022 0.7828 0.0000
vt 0.6516 0.7974 0.0000
vt 0.6516 0.9926 0.0000
vt 0.2035 0.7860 0.0000
vt 0.3415 0.7883 0.0000
vt 0.3415 0.7905 0.0000
vt 0.2016 0.7905 0.0000
vt 0.6448 0.7860 0.0000
vt 0.6467 0.7905 0.0000
vt 0.4178 0.7905 0.0000
vt 0.4178 0.7883 0.0000
vt 0.4178 0.7860 0.0000
vt 0.4178 0.9246 0.0000
vt 0.6467 0.9835 0.0000
vt 0.2016 0.9835 0.0000
vt 0.3415 0.9246 0.0000
vt 0.6540 0.7950 0.0000
vt 0.9874 0.7950 0.0000
vt 0.9874 0.9950 0.0000
vt 0.6540 0.9950 0.0000
vt 0.1990 0.7847 0.0000
vt 0.0106 0.7847 0.0000
vt 0.0106 0.2017 0.0000
vt 0.1990 0.2017 0.0000
vt 0.8369 0.7847 0.0000
vt 0.6485 0.7847 0.0000
vt 0.6485 0.2017 0.0000
vt 0.8369 0.2017 0.0000
# 51 texture coords

o Room
g Room
usemtl Material__329
s 2
f 1/1/1 2/2/2 3/3/3 4/4/4 
s 16
f 5/5/5 1/1/1 4/4/4 6/6/6 
s 64
f 7/7/7 8/8/8 9/9/9 
s 32
f 10/10/10 11/11/11 12/12/12 
s 1
f 11/13/11 10/14/10 8/15/8 7/16/7 
s 128
f 13/17/13 12/18/12 11/19/11 7/20/7 9/21/9 14/22/14 
s 512
f 5/5/5 6/6/6 15/23/15 8/15/8 10/14/10 16/24/16 
s 1024
f 17/25/17 13/17/13 14/22/14 18/26/18 
s 2048
f 16/27/16 10/10/10 12/28/12 19/29/19 20/30/20 
s 4096
f 15/31/15 21/32/21 22/33/22 9/34/9 8/35/8 
s 8192
f 18/36/18 23/37/23 24/38/24 17/39/17 
s 2
f 23/37/23 18/36/18 22/33/22 21/32/21 
f 17/39/17 24/38/24 20/30/20 19/29/19 
s 256
f 17/40/17 19/41/19 12/18/12 13/17/13 
f 14/22/14 9/21/9 22/42/22 18/43/18 
s 1
f 20/44/20 24/45/24 2/46/2 1/47/1 
f 23/48/23 21/49/21 4/50/4 3/51/3 
s 4
f 16/24/16 20/44/20 1/47/1 5/5/5 
s 8
f 6/6/6 4/50/4 21/49/21 15/23/15 
# 17 polygons - 2 triangles

