# 3ds Max Wavefront OBJ Exporter v0.97b - (c)2007 guruware
# File Created: 03.04.2019 23:12:42

mtllib room.mtl

#
# object Room
#

v  -196.8504 0.0000 196.8504
v  196.8504 0.0000 196.8504
v  196.8504 0.0000 -196.8504
v  -196.8504 0.0000 -196.8504
v  -196.8504 118.1102 196.8504
v  -196.8504 118.1102 -196.8504
v  196.8504 118.1102 -196.8504
v  196.8504 118.1102 196.8504
# 8 vertices

vn 0.5774 0.5774 -0.5774
vn -0.5774 0.5774 -0.5774
vn -0.5774 0.5774 0.5774
vn 0.5774 0.5774 0.5774
vn 0.5774 -0.5774 -0.5774
vn 0.5774 -0.5774 0.5774
vn -0.5774 -0.5774 0.5774
vn -0.5774 -0.5774 -0.5774
# 8 vertex normals

vt 0.1401 0.1323 0.0000
vt 0.5730 0.1323 0.0000
vt 0.5730 0.5653 0.0000
vt 0.1401 0.5653 0.0000
vt 0.0005 0.9995 0.0000
vt 0.0005 0.5666 0.0000
vt 0.4334 0.5666 0.0000
vt 0.4334 0.9995 0.0000
vt 0.8716 0.0005 0.0000
vt 0.8716 0.1304 0.0000
vt 0.4386 0.1304 0.0000
vt 0.4386 0.0005 0.0000
vt 0.4373 0.0005 0.0000
vt 0.4373 0.1304 0.0000
vt 0.0044 0.1304 0.0000
vt 0.0044 0.0005 0.0000
vt 0.1304 0.5653 0.0000
vt 0.0005 0.5653 0.0000
vt 0.0005 0.1323 0.0000
vt 0.1304 0.1323 0.0000
vt 0.7042 0.5730 0.0000
vt 0.5743 0.5730 0.0000
vt 0.5743 0.1401 0.0000
vt 0.7042 0.1401 0.0000
# 24 texture coords

o Room
g Room
usemtl Material__164
s 2
f 1/1/1 2/2/2 3/3/3 4/4/4 
s 4
f 5/5/5 6/6/6 7/7/7 8/8/8 
s 8
f 1/9/1 5/10/5 8/11/8 2/12/2 
s 16
f 2/13/2 8/14/8 7/15/7 3/16/3 
s 32
f 3/17/3 7/18/7 6/19/6 4/20/4 
s 64
f 4/21/4 6/22/6 5/23/5 1/24/1 
# 6 polygons

